<?xml version="1.0" standalone="no"?>
<!DOCTYPE svg PUBLIC "-//W3C//DTD SVG 20010904//EN"
 "http://www.w3.org/TR/2001/REC-SVG-20010904/DTD/svg10.dtd">
<svg version="1.0" xmlns="http://www.w3.org/2000/svg"
 width="256.000000pt" height="256.000000pt" viewBox="0 0 256.000000 256.000000"
 preserveAspectRatio="xMidYMid meet">
<metadata>
Created by potrace 1.11, written by Peter Selinger 2001-2013
</metadata>
<g transform="translate(0.000000,256.000000) scale(0.100000,-0.100000)"
fill="#000000" stroke="none">
<path d="M1954 2553 c4 -5 28 -9 53 -9 25 -1 49 -7 53 -15 7 -10 16 -10 46 -1
21 6 41 8 44 3 6 -9 4 -9 120 -14 47 -2 92 -7 101 -11 9 -4 45 -9 80 -10 35
-2 74 -6 87 -11 19 -6 22 -4 22 18 0 24 -2 25 -50 21 -40 -4 -50 -2 -50 10 0
13 10 15 51 11 32 -3 48 -1 44 5 -4 6 -119 10 -307 10 -166 0 -298 -3 -294 -7z"/>
<path d="M1314 2515 c-29 -14 -78 -31 -110 -40 -33 -8 -63 -21 -69 -28 -5 -8
-17 -12 -25 -9 -12 4 -13 3 -3 -10 11 -12 9 -18 -7 -33 -11 -10 -20 -14 -20
-9 0 5 -4 3 -9 -4 -7 -11 -9 -10 -14 3 -4 9 -3 13 2 10 5 -3 12 -1 16 5 3 6
-3 10 -15 10 -15 0 -20 -5 -16 -15 8 -21 -22 -47 -46 -39 -14 4 -24 -1 -34
-15 -10 -13 -26 -21 -45 -21 -16 0 -29 -4 -29 -9 0 -5 9 -7 20 -4 16 4 19 2
14 -11 -4 -10 -13 -15 -20 -12 -8 3 -14 1 -14 -4 0 -5 -10 -11 -22 -13 l-23
-4 23 -2 22 -1 -20 -40 c-12 -23 -25 -38 -30 -35 -6 4 -10 2 -10 -4 0 -6 -10
-20 -22 -31 -20 -18 -20 -20 -4 -14 19 7 19 7 0 -19 -10 -14 -23 -27 -29 -27
-5 0 -4 -4 4 -9 12 -8 13 -12 1 -25 -7 -9 -15 -33 -17 -52 -2 -20 -11 -50 -19
-66 -11 -21 -12 -28 -3 -22 9 5 10 2 5 -12 -4 -10 -10 -35 -13 -54 -6 -45 -31
-157 -43 -190 -4 -14 -11 -33 -14 -43 -5 -15 -9 -15 -25 -5 -15 9 -26 9 -44 1
l-24 -11 1 -229 c1 -190 4 -232 17 -250 22 -31 14 -82 -12 -76 -10 3 -19 1
-19 -5 0 -5 -10 -12 -22 -16 -22 -5 -23 -6 -3 -21 15 -13 16 -15 3 -11 -11 3
-18 -3 -22 -19 -4 -17 -16 -27 -38 -33 -41 -10 -59 -58 -38 -97 7 -14 10 -28
7 -32 -4 -3 -7 -1 -7 6 0 7 -4 10 -8 7 -5 -3 -21 1 -36 9 -14 8 -33 12 -41 8
-8 -3 -15 0 -15 6 0 6 9 11 20 11 11 0 20 5 20 11 0 6 -7 9 -15 5 -17 -6 -45
19 -46 42 0 10 -3 12 -5 5 -4 -9 -13 -9 -31 -2 -29 11 -45 3 -23 -11 17 -11
14 -15 -20 -25 -23 -7 -24 -7 -10 10 14 17 13 18 -12 13 -15 -3 -25 -1 -22 4
3 5 -6 6 -20 2 -29 -7 -31 0 -26 84 1 34 -1 42 -15 42 -15 0 -17 -7 -11 -46 4
-32 3 -45 -6 -42 -6 2 -12 15 -13 28 -1 13 -7 26 -14 28 -20 7 -41 33 -41 52
0 20 -23 32 -45 24 -11 -5 -15 -23 -15 -74 0 -59 2 -68 20 -73 17 -4 20 0 20
28 0 21 6 35 16 39 24 9 24 9 24 -29 0 -19 -4 -35 -10 -35 -5 0 -10 -7 -10
-16 0 -10 -5 -14 -15 -10 -11 4 -17 -3 -22 -24 -3 -17 -9 -30 -13 -30 -3 0 -8
-49 -9 -109 l-2 -110 38 -4 38 -4 -37 -1 c-48 -2 -49 -18 -3 -26 19 -4 40 -14
47 -24 31 -42 52 -49 153 -56 33 -3 69 -7 80 -11 19 -6 19 -6 3 8 -19 15 -25
32 -8 22 6 -3 10 1 10 9 0 9 -4 16 -8 16 -5 0 -9 7 -9 15 0 8 4 12 9 9 12 -8
10 10 -7 47 -8 19 -15 27 -15 19 -1 -8 -7 -28 -15 -45 -10 -20 -14 -24 -12
-10 1 11 -2 26 -6 32 -6 9 -3 11 7 7 19 -7 22 21 4 32 -7 5 -8 3 -3 -6 6 -10
4 -12 -8 -7 -10 3 -17 2 -17 -3 0 -6 -7 -10 -15 -10 -8 0 -15 4 -15 9 0 5 -11
12 -25 15 -16 4 -23 11 -19 18 4 6 7 27 6 47 -1 26 1 32 8 21 5 -8 10 -31 10
-50 1 -35 1 -35 14 -11 10 18 15 20 19 10 4 -11 10 -9 25 8 23 26 34 30 26 9
-3 -8 3 -19 15 -25 25 -14 34 -14 26 -1 -3 6 -2 10 2 10 5 0 7 17 5 38 -2 25
0 33 6 23 8 -11 14 -11 33 0 13 7 26 13 29 13 3 1 4 9 3 19 -4 30 15 19 22
-13 4 -17 11 -30 16 -30 6 0 7 -10 3 -22 -6 -23 -6 -23 20 2 19 17 25 20 20 7
-7 -20 -1 -21 27 -7 15 9 19 7 19 -6 0 -10 3 -14 7 -11 3 4 12 2 20 -4 9 -9
13 -8 13 0 0 6 7 11 15 11 7 0 19 8 24 18 10 16 10 16 11 0 0 -9 7 -21 16 -26
12 -7 13 -11 5 -16 -7 -4 -19 -2 -28 6 -15 12 -15 11 -2 -10 15 -24 24 -27 34
-12 10 16 35 12 29 -5 -4 -8 -1 -15 7 -15 7 0 9 -3 6 -6 -3 -4 0 -16 8 -28 18
-25 21 -56 4 -39 -6 6 -18 9 -25 6 -9 -3 -14 1 -14 12 0 9 -4 14 -8 11 -5 -3
-15 4 -22 15 -17 23 -45 26 -36 3 3 -9 6 -20 6 -25 0 -6 4 -8 9 -4 5 3 13 1
16 -5 4 -6 3 -10 -2 -9 -22 4 -43 -2 -43 -12 0 -7 23 -9 63 -7 l62 3 1 -42 c1
-50 4 -49 -133 -52 -56 -1 -110 -4 -120 -6 -10 -2 -37 -4 -61 -4 -26 -1 -41
-5 -37 -11 3 -5 -3 -10 -14 -10 -11 0 -22 4 -25 9 -3 5 -25 7 -48 5 -23 -2
-54 -5 -70 -6 -15 -1 -28 -5 -28 -8 0 -3 -20 -4 -45 -2 -25 2 -61 1 -80 -2
l-35 -7 0 -224 0 -225 570 0 570 0 0 25 c0 16 -6 25 -16 25 -8 0 -13 4 -9 9 3
5 -3 12 -13 15 -26 9 -48 56 -30 67 9 6 7 9 -7 9 -18 1 -17 2 5 15 19 10 27
10 32 2 4 -7 8 -7 8 -2 0 6 14 11 30 12 17 1 30 -2 30 -6 0 -5 16 -1 35 9 22
11 50 16 80 14 25 -2 45 1 45 6 0 6 9 10 20 10 10 0 27 8 37 19 10 10 28 22
41 25 12 4 22 12 22 17 0 5 5 9 11 9 11 0 33 19 40 35 2 6 8 9 12 7 4 -1 21
12 37 30 17 18 30 30 30 27 0 -3 -18 -50 -40 -105 -23 -54 -48 -126 -56 -159
-9 -32 -22 -72 -30 -87 l-15 -28 561 0 560 0 0 401 -1 401 -24 -4 c-13 -3 -26
-1 -28 5 -1 5 -10 2 -19 -7 -26 -26 -31 -19 -26 33 4 42 2 50 -14 54 -13 4
-18 -1 -19 -16 0 -12 -3 -16 -6 -9 -2 6 -11 12 -18 12 -9 0 -12 -13 -11 -46 1
-25 -2 -47 -6 -50 -4 -3 -8 13 -8 35 0 35 -3 41 -21 41 -16 0 -20 -5 -16 -19
5 -22 -16 -36 -58 -40 -8 0 -15 -10 -15 -21 0 -11 -4 -20 -10 -20 -14 0 -12
12 6 38 14 20 15 44 9 173 -6 125 -10 149 -22 145 -8 -3 -19 -6 -24 -6 -5 0
-9 -66 -9 -152 0 -92 -4 -148 -9 -142 -5 5 -11 20 -14 34 -3 16 -5 10 -6 -17
0 -24 -6 -43 -12 -43 -5 0 -7 -6 -4 -12 4 -7 0 -5 -8 4 -8 10 -16 15 -19 12
-3 -2 -8 4 -11 15 -3 14 -1 18 9 14 11 -4 14 17 14 114 0 66 3 123 7 126 3 4
12 2 19 -4 10 -8 13 -6 11 10 -1 15 -8 20 -27 19 -47 -3 -50 -12 -50 -144 0
-120 -1 -124 -21 -124 -26 0 -48 26 -49 57 0 15 -5 21 -14 17 -21 -8 -28 -34
-15 -50 9 -11 7 -14 -9 -14 -13 0 -29 -14 -42 -35 -29 -46 -73 -71 -90 -50
-18 22 -3 96 21 102 15 4 16 9 9 24 -10 17 0 93 14 106 10 10 46 -29 46 -49 0
-27 36 -23 44 5 11 42 6 69 -16 87 -19 15 -20 20 -9 34 9 10 10 16 2 16 -6 0
-11 -3 -11 -8 0 -4 -9 -13 -20 -20 -17 -10 -20 -10 -20 5 0 9 3 13 7 10 3 -4
15 5 25 20 10 16 18 24 18 18 0 -5 7 1 16 14 9 12 35 31 58 41 37 17 38 19 14
19 -26 1 -26 1 -13 43 7 24 19 59 28 78 21 50 57 185 57 215 0 15 4 34 9 43 5
9 11 42 14 72 3 30 9 65 12 76 4 13 -1 37 -13 61 -23 45 -44 131 -45 185 -1
22 -5 35 -12 32 -5 -3 -3 0 5 8 8 7 21 21 29 31 12 15 12 17 -3 11 -9 -3 -16
-2 -16 4 0 6 6 12 13 15 20 7 -37 97 -62 97 -6 0 -11 6 -11 13 0 20 -41 54
-75 61 -20 4 -25 3 -16 -3 7 -5 11 -14 7 -20 -4 -6 -15 -3 -31 11 -23 20 -24
43 -2 51 7 2 0 2 -15 0 -29 -5 -32 2 -29 62 1 18 0 19 -7 2 -7 -18 -9 -18 -32
2 -14 11 -21 20 -17 21 4 0 -12 20 -36 44 -30 31 -55 47 -83 52 -21 4 -48 13
-59 20 -11 8 -30 14 -43 14 -12 0 -36 10 -52 22 -32 24 -107 33 -127 16 -9 -7
-13 -7 -13 1 0 6 -7 11 -16 11 -8 0 -22 7 -30 15 -20 19 -20 19 -80 -10z m76
-5 c0 -5 -9 -10 -19 -10 -11 0 -23 5 -26 10 -4 6 5 10 19 10 14 0 26 -4 26
-10z m-400 -175 c0 -8 -4 -15 -10 -15 -5 0 -7 7 -4 15 4 8 8 15 10 15 2 0 4
-7 4 -15z m783 -530 c15 2 27 -1 27 -6 0 -4 13 -15 29 -24 45 -23 84 -63 78
-79 -3 -8 1 -17 9 -20 16 -6 19 -46 4 -46 -7 0 -7 -6 0 -20 6 -11 17 -20 25
-20 8 0 15 -4 15 -10 0 -5 -5 -10 -12 -10 -9 0 -9 -3 0 -12 15 -15 4 -94 -20
-135 -11 -18 -17 -37 -13 -43 3 -5 1 -10 -5 -10 -7 0 -10 -7 -7 -15 4 -8 2
-17 -3 -20 -8 -5 -7 -30 5 -144 3 -24 1 -60 -4 -80 -5 -20 -11 -65 -13 -101
-2 -36 -9 -71 -16 -79 -9 -9 -12 -26 -8 -45 4 -22 3 -27 -4 -16 -8 12 -10 11
-10 -6 0 -12 -7 -27 -15 -34 -18 -15 -19 -7 -3 20 7 10 9 23 4 27 -11 11 -36
-26 -36 -55 0 -13 -4 -20 -10 -17 -5 3 -10 -1 -10 -9 0 -9 -3 -16 -7 -16 -13
0 -42 -73 -49 -122 -3 -26 -12 -52 -19 -58 -11 -9 -11 -4 -3 27 6 21 11 52 12
68 2 31 -18 65 -39 65 -7 0 -20 12 -30 26 -9 15 -12 23 -5 19 8 -5 11 -3 8 6
-3 8 -13 13 -22 13 -9 -1 -16 6 -16 15 0 21 -11 30 -134 113 -54 37 -103 65
-108 62 -4 -3 -1 -12 7 -20 17 -18 20 -40 5 -49 -17 -11 -11 -23 14 -29 25 -6
29 -14 41 -74 5 -24 3 -32 -6 -30 -7 2 -14 -3 -15 -9 -1 -7 -2 -16 -3 -20 0
-4 -8 3 -17 15 -8 12 -21 22 -29 22 -7 0 -15 5 -17 10 -2 6 -26 15 -53 19 -28
5 -39 9 -25 10 14 1 36 8 49 15 22 12 17 14 -60 20 -123 9 -122 9 -129 36 -4
14 -4 53 0 87 8 64 49 193 62 193 5 0 8 6 8 13 0 11 33 65 73 122 14 18 15 19
41 2 15 -10 26 -27 26 -40 0 -12 7 -33 16 -45 15 -22 11 -47 -7 -37 -5 4 -9 1
-9 -5 0 -14 31 -63 47 -73 7 -4 13 -15 13 -22 0 -8 9 -15 20 -15 11 0 20 -4
20 -10 0 -5 9 -10 19 -10 11 0 26 -6 33 -13 7 -7 24 -13 37 -14 13 -1 31 -9
40 -17 21 -19 41 -20 76 -4 20 9 31 8 50 -2 42 -22 39 -4 -5 26 -22 16 -43 38
-46 50 -4 16 -11 20 -31 16 -15 -3 -23 -1 -20 4 3 6 21 9 39 8 18 -1 41 -2 51
-3 11 -1 21 -10 24 -20 6 -23 28 -30 63 -21 l25 7 -25 11 c-22 9 -22 11 -5 12
19 1 18 2 -2 10 -15 6 -23 18 -23 33 0 25 -43 70 -79 82 -31 10 -26 27 7 19
42 -11 94 -43 122 -75 29 -33 50 -27 46 15 -6 47 -84 116 -173 153 -43 18 -98
35 -123 39 -25 3 -49 9 -55 13 -5 4 -23 8 -39 10 -37 4 -58 24 -50 48 3 11 2
14 -3 7 -4 -5 -35 -10 -68 -10 l-60 1 1 37 c1 41 63 178 80 178 17 0 65 -26
59 -32 -3 -3 12 -4 32 -2 21 2 48 3 61 3 12 1 22 5 22 11 0 5 -8 7 -17 3 -10
-3 -15 -3 -11 2 4 4 3 14 -3 22 -7 8 -8 13 -1 13 5 0 8 9 5 20 -4 14 0 20 10
20 24 0 32 -22 14 -35 -10 -7 -17 -15 -17 -19 0 -13 27 -5 49 15 17 16 20 24
10 35 -9 11 -8 14 2 14 11 0 11 2 -1 10 -9 6 -10 10 -3 10 6 0 19 -10 29 -22
12 -16 15 -18 10 -5 -6 18 12 57 26 57 5 0 8 -7 8 -15 0 -21 68 -21 76 0 4 8
10 12 15 9 5 -3 9 1 9 8 0 9 2 10 8 2 4 -7 19 -10 35 -9z m-73 -5 c0 -5 -4
-10 -9 -10 -6 0 -13 5 -16 10 -3 6 1 10 9 10 9 0 16 -4 16 -10z m-295 -40 c-3
-5 -11 -10 -16 -10 -6 0 -7 5 -4 10 3 6 11 10 16 10 6 0 7 -4 4 -10z m-31 -25
c3 -8 1 -15 -4 -15 -6 0 -10 7 -10 15 0 8 2 15 4 15 2 0 6 -7 10 -15z m75 -29
c10 -12 9 -14 -5 -12 -10 2 -20 8 -22 14 -5 17 13 15 27 -2z m-539 -450 c0 -2
-9 -6 -20 -9 -11 -3 -20 -1 -20 4 0 5 9 9 20 9 11 0 20 -2 20 -4z m-410 -346
c0 -5 -4 -10 -10 -10 -5 0 -10 5 -10 10 0 6 5 10 10 10 6 0 10 -4 10 -10z
m-233 -44 c-3 -7 -1 -19 4 -25 6 -8 5 -8 -3 -1 -19 16 -27 12 -21 -10 3 -11 9
-18 13 -15 16 10 31 -22 20 -46 l-10 -24 3 25 c1 18 -3 25 -15 24 -10 -1 -18
2 -18 6 0 5 -9 12 -20 15 -11 4 -17 11 -14 17 4 6 10 5 15 -3 5 -8 9 -11 10
-6 6 30 20 57 31 57 6 0 8 -6 5 -14z m903 6 c0 -5 -6 -17 -14 -28 -10 -13 -14
-14 -13 -4 4 26 27 54 27 32z m-590 -16 c0 -3 -4 -8 -10 -11 -5 -3 -10 -1 -10
4 0 6 5 11 10 11 6 0 10 -2 10 -4z m-450 -26 c0 -5 -4 -10 -9 -10 -6 0 -13 5
-16 10 -3 6 1 10 9 10 9 0 16 -4 16 -10z m245 -6 c-8 -6 -15 -16 -15 -23 0 -6
-4 -11 -9 -11 -5 0 -8 8 -7 18 0 9 -5 16 -11 15 -7 -2 -13 1 -13 6 0 5 16 9
35 8 28 -2 32 -4 20 -13z m-346 -16 c-9 -16 -14 -19 -17 -9 -2 7 2 17 9 22 20
13 21 11 8 -13z m2408 -4 c-3 -3 -12 -4 -19 -1 -8 3 -5 6 6 6 11 1 17 -2 13
-5z m-977 -25 c0 -5 -4 -9 -10 -9 -5 0 -10 7 -10 16 0 8 5 12 10 9 6 -3 10
-10 10 -16z m634 -28 c-3 -3 -8 -1 -12 5 -4 6 -18 15 -31 19 -18 5 -20 9 -10
16 14 8 64 -29 53 -40z m-1884 35 c0 -3 -4 -8 -10 -11 -5 -3 -10 -1 -10 4 0 6
5 11 10 11 6 0 10 -2 10 -4z m1090 -21 c0 -17 -14 -33 -26 -29 -45 14 -48 15
-37 22 11 7 63 13 63 7z m60 -20 c0 -8 -7 -15 -16 -15 -14 0 -14 3 -4 15 7 8
14 15 16 15 2 0 4 -7 4 -15z m45 -15 c8 -13 -5 -13 -25 0 -13 8 -13 10 2 10 9
0 20 -4 23 -10z m285 5 c0 -12 -24 -55 -31 -55 -18 0 -20 23 -3 41 16 17 34
25 34 14z m360 -26 c0 -6 -4 -7 -10 -4 -5 3 -10 11 -10 16 0 6 5 7 10 4 6 -3
10 -11 10 -16z m-1947 -26 c-7 -2 -21 -2 -30 0 -10 3 -4 5 12 5 17 0 24 -2 18
-5z m1147 -5 c0 -7 4 -7 13 1 16 13 77 10 77 -4 0 -5 -7 -22 -14 -37 -17 -33
-18 -32 23 -12 47 23 87 11 95 -29 6 -27 2 -36 -23 -59 -20 -18 -26 -30 -19
-34 7 -5 5 -11 -7 -20 -10 -8 -15 -20 -11 -29 3 -9 2 -13 -4 -10 -5 3 -8 -3
-7 -14 0 -11 5 -17 9 -15 4 3 8 -2 8 -11 0 -9 -4 -13 -10 -10 -5 3 -10 -1 -10
-9 0 -9 -4 -16 -10 -16 -5 0 -7 -7 -4 -15 4 -11 2 -13 -9 -10 -10 4 -16 -3
-20 -22 -5 -24 -10 -28 -34 -27 -15 1 -30 3 -33 4 -3 1 -13 1 -23 1 -9 -1 -20
4 -23 12 -3 9 -16 18 -28 21 -13 3 -30 16 -39 29 -15 23 -15 24 36 37 29 7 55
18 59 24 4 6 13 11 19 11 6 0 18 10 26 22 14 21 13 21 -31 17 -64 -6 -58 10
18 45 86 39 91 53 14 35 -39 -9 -64 -11 -66 -5 -2 5 -10 7 -18 4 -7 -3 -17 2
-20 11 -3 9 -12 16 -20 16 -7 0 -18 9 -24 19 -8 16 -6 20 8 24 10 3 6 5 -10 6
-28 1 -34 14 -22 45 4 12 21 15 70 15 37 -1 64 -5 64 -11z m627 -25 c-11 -10
-26 8 -20 23 5 15 7 14 15 -1 6 -9 7 -19 5 -22z m272 5 c6 -18 7 -28 2 -23
-10 12 -25 55 -18 55 3 0 10 -15 16 -32z m-1049 2 c-6 -11 -16 -17 -25 -14
-27 11 -15 34 17 34 15 0 17 -3 8 -20z m536 -25 c-10 -15 -20 -24 -23 -21 -3
3 2 12 10 21 9 9 13 23 10 33 -5 13 -3 15 7 5 11 -10 10 -17 -4 -38z m474 3
c0 -13 -23 -5 -28 10 -2 7 2 10 12 6 9 -3 16 -11 16 -16z m400 -18 c0 -5 -4
-10 -10 -10 -5 0 -10 5 -10 10 0 6 5 10 10 10 6 0 10 -4 10 -10z m-330 -49 c8
-2 44 -5 80 -6 36 -1 87 -3 113 -3 27 -1 46 -5 43 -10 -7 -11 -666 -15 -666
-4 0 16 29 18 173 15 76 -1 135 1 133 6 -3 5 17 8 45 6 37 -2 49 1 45 10 -2 7
-2 16 2 20 4 4 9 -2 12 -12 3 -10 12 -20 20 -22z m357 -17 c-3 -3 -22 -6 -42
-6 -20 0 -39 3 -42 6 -4 3 15 6 42 6 27 0 46 -3 42 -6z"/>
<path d="M1362 1528 c6 -18 28 -21 28 -4 0 9 -7 16 -16 16 -9 0 -14 -5 -12
-12z"/>
<path d="M1240 651 c0 -6 4 -13 10 -16 6 -3 7 1 4 9 -7 18 -14 21 -14 7z"/>
<path d="M1691 2484 c0 -11 3 -14 6 -6 3 7 2 16 -1 19 -3 4 -6 -2 -5 -13z"/>
<path d="M2062 1097 c-15 -9 -19 -16 -12 -23 8 -8 8 -19 0 -38 -5 -15 -10 -43
-10 -63 0 -36 0 -36 18 -15 10 11 28 43 41 70 33 71 18 99 -37 69z"/>
<path d="M2193 955 c0 -44 2 -61 4 -37 2 23 2 59 0 80 -2 20 -4 1 -4 -43z"/>
<path d="M350 940 c-12 -8 -11 -10 7 -10 12 0 24 -8 26 -17 3 -11 5 -7 6 10 1
28 -12 34 -39 17z"/>
<path d="M2495 900 c3 -5 12 -10 20 -10 8 0 17 5 20 10 4 6 -5 10 -20 10 -15
0 -24 -4 -20 -10z"/>
<path d="M1918 868 c9 -9 15 -9 24 0 9 9 7 12 -12 12 -19 0 -21 -3 -12 -12z"/>
<path d="M401 753 c0 -12 -6 -23 -12 -25 -7 -2 -10 -11 -7 -18 7 -21 31 26 25
48 -4 13 -5 11 -6 -5z"/>
<path d="M430 675 c0 -8 -7 -15 -15 -15 -14 0 -20 -13 -15 -35 1 -5 3 -18 5
-27 2 -10 -4 -20 -15 -23 -23 -7 -16 -41 11 -48 22 -6 32 6 35 42 2 14 8 27
14 29 21 7 9 24 -15 20 -30 -6 -31 1 -5 30 22 23 26 42 10 42 -5 0 -10 -7 -10
-15z"/>
<path d="M525 679 c-4 -6 -5 -12 -2 -15 2 -3 7 2 10 11 7 17 1 20 -8 4z"/>
<path d="M345 570 c-3 -5 -1 -10 4 -10 6 0 11 5 11 10 0 6 -2 10 -4 10 -3 0
-8 -4 -11 -10z"/>
<path d="M513 546 c0 -19 5 -23 23 -22 13 0 19 5 14 10 -5 5 -6 15 -3 22 3 9
-2 14 -15 14 -14 0 -19 -7 -19 -24z"/>
<path d="M595 560 c-3 -5 1 -10 10 -10 9 0 13 5 10 10 -3 6 -8 10 -10 10 -2 0
-7 -4 -10 -10z"/>
<path d="M16 546 c10 -8 21 -12 24 -10 5 6 -21 24 -34 24 -6 0 -1 -6 10 -14z"/>
</g>
</svg>
